<svg width="155" height="40" viewBox="0 0 155 40" fill="none" xmlns="http://www.w3.org/2000/svg">
<g id="Logo-side-badge" clip-path="url(#clip0_614_235)">
<g id="Mask group">
<mask id="mask0_614_235" style="mask-type:luminance" maskUnits="userSpaceOnUse" x="0" y="0" width="35" height="40">
<g id="Group">
<path id="Vector" d="M34.0141 0.0403748H0.0236816V39.9923H34.0141V0.0403748Z" fill="white"/>
</g>
</mask>
<g mask="url(#mask0_614_235)">
<g id="Group_2">
<path id="Vector_2" d="M16.8481 38.0376C11.1755 38.0376 5.48979 33.9521 3.5447 28.4312C1.78826 23.2416 1.75573 17.2075 3.45362 11.8619C5.53532 6.08127 10.5379 2.33352 16.5098 2.08021C22.4557 1.8269 27.7055 5.10699 30.2556 10.6344C32.6951 16.1098 32.0121 22.631 31.3875 26.028C30.0344 32.8869 23.9845 38.0311 17.297 38.0311C17.2709 38.0311 17.2514 38.0311 17.2254 38.0311H17.1018C17.0172 38.0311 16.9262 38.0311 16.8416 38.0311L16.8481 38.0376ZM17.1473 2.55436C16.9392 2.55436 16.7375 2.55436 16.5294 2.56735C10.7591 2.81417 5.91912 6.43848 3.90249 12.0243C2.23713 17.2595 2.26965 23.1831 3.99356 28.2753C5.90614 33.6858 11.5462 37.6804 17.0953 37.5505H17.2254C17.2254 37.5505 17.2709 37.5505 17.2905 37.5505C23.6462 37.5505 29.6181 32.4647 30.9061 25.9435C31.5176 22.5985 32.1942 16.1878 29.8067 10.8422C27.4323 5.69156 22.6184 2.56085 17.1409 2.56085L17.1473 2.55436Z" fill="#1A3224"/>
<path id="Vector_3" d="M16.7877 39.9925C7.95342 39.9925 0.381216 32.3022 0.186056 23.066C-0.965389 11.1668 3.98517 2.71009 13.4374 0.46275C21.491 -1.45982 30.1627 3.39209 32.7713 11.2902C34.2935 15.9863 34.4302 22.2541 33.1291 27.6516C31.236 34.8093 24.5486 39.9925 17.217 39.9925H17.0414C16.9568 39.9925 16.8788 39.9925 16.7942 39.9925H16.7877ZM17.0414 0.690086C15.89 0.690086 14.732 0.819989 13.587 1.09279C9.21549 2.13202 -0.78324 6.3474 0.836587 23.0271C1.02525 32.0229 8.42832 39.4859 17.0219 39.343H17.152C17.152 39.343 17.1845 39.343 17.204 39.343C24.2493 39.343 30.6765 34.3676 32.4915 27.4957C33.7666 22.2087 33.6365 16.0772 32.1468 11.4916C30.0195 5.02889 23.6573 0.690086 17.0414 0.690086Z" fill="#1A3224"/>
<path id="Vector_4" d="M14.1586 16.9093C13.8988 17.0857 13.6563 17.2925 13.4426 17.5175V23.4175C13.4426 25.5525 13.1944 26.1485 12.4553 26.3797V26.7203H16.4624V26.3797C15.6945 26.1485 15.475 25.5525 15.475 23.4175V16.2707C14.9958 16.4227 14.557 16.6417 14.1644 16.9093H14.1586Z" fill="#1A3224"/>
<path id="Vector_5" d="M18.5882 32.2005C13.1464 32.2005 10.1686 27.5263 10.1931 22.6393C10.1931 19.3266 11.4466 17.0107 13.4093 15.7343C14.0513 15.3149 14.7728 15.0049 15.5554 14.8165C16.1914 14.6584 16.864 14.5855 17.5671 14.5855C20.6793 14.5855 23.1618 16.172 24.1829 18.5364L24.4458 18.4817L24.3419 15.3879C23.3208 14.7375 20.7099 14.0932 18.4598 14.0932C17.4387 14.0932 16.4665 14.2086 15.5554 14.4214V8.90835H20.1841C22.6482 8.90835 23.7427 9.55873 24.6353 11.3032L24.9166 11.2181L24.6843 8.48892H12.3698V8.82931C13.1586 9.06032 13.4154 9.65599 13.4154 11.7895V15.163C10.083 16.7251 8.00415 19.8797 8.00415 23.7273C8.00415 29.3984 11.8501 32.7232 17.8667 32.7232C20.7894 32.7232 23.2779 31.9938 24.507 31.3252L24.9228 27.9457L24.6415 27.9153C23.6204 30.7174 21.4192 32.2005 18.6004 32.2005H18.5882Z" fill="#1A3224"/>
</g>
</g>
</g>
<path id="Vector_6" d="M44.2793 18.4034V7.97934H53.6757V8.72809H46.144V12.9565H52.457V13.7053H46.144V18.4034H44.2793Z" fill="#1A3224"/>
<path id="Vector_7" d="M62.9905 18.6089H62.8439C62.7997 18.6089 62.7559 18.6089 62.7117 18.6089C58.8064 18.6089 55.8848 16.3479 55.8848 13.3088C55.8848 10.1669 58.8064 7.83243 62.7117 7.83243H62.8583C62.9026 7.83243 62.9468 7.83243 62.9905 7.83243C66.8958 7.83243 69.8175 10.1669 69.8175 13.3088C69.8175 16.3479 66.8958 18.6089 62.9905 18.6089ZM57.8958 13.3088C57.8958 16.0396 59.8045 17.8161 62.4035 17.9482L62.8439 17.9629C63.0054 17.9629 63.1521 17.9629 63.2987 17.9482C65.8977 17.8161 67.8064 16.0396 67.8064 13.3088C67.8064 10.5486 65.9564 8.68397 63.4309 8.4931L62.8583 8.47844C62.653 8.47844 62.4622 8.4931 62.2713 8.4931C59.7458 8.68397 57.8958 10.5486 57.8958 13.3088Z" fill="#1A3224"/>
<path id="Vector_8" d="M78.3657 18.4621C75.3263 18.4621 73.0508 16.9646 73.0508 14.9826V7.97934H74.9008V14.8064C74.9008 16.5829 75.9724 17.6253 78.3657 17.6253C80.8763 17.6253 82.4767 16.4948 82.5205 14.6302V7.97934H83.3282V14.733C83.2253 16.8765 81.1407 18.4621 78.3657 18.4621Z" fill="#1A3224"/>
<path id="Vector_9" d="M96.7766 18.4034L87.6737 9.30069V18.4034H86.8665V8.49319L86.8516 8.47852L86.8665 8.46386V7.97934H87.2919C87.4391 7.97934 87.3068 7.97934 87.6737 7.97934H88.6722L96.7766 15.9222V7.97934H97.5843V18.4034H96.7766Z" fill="#1A3224"/>
<path id="Vector_10" d="M101.107 18.4034V7.97934H105.688C110.005 7.97934 112.868 9.88799 112.868 13.118C112.868 16.4361 110.005 18.4034 105.688 18.4034H101.107ZM102.972 17.64H104.968C108.58 17.64 110.973 16.1571 110.973 13.118C110.973 10.1522 108.551 8.72809 104.91 8.72809H102.972V17.64Z" fill="#1A3224"/>
<path id="Vector_11" d="M116.398 7.97934H125.854V8.72809H118.248V12.6628H124.635V13.4116H118.248V17.6546H125.854V18.4034H116.398V7.97934Z" fill="#1A3224"/>
<path id="Vector_12" d="M129.379 7.97934H135.237C138.217 7.97934 140.009 8.96304 140.009 10.6661C140.009 12.3252 138.526 13.3822 136.001 13.5584C137.41 14.3219 139.054 18.0804 141.242 17.8749L141.11 18.4768C137.572 18.8439 135.369 13.9402 133.534 13.5878H131.229V18.4034H129.379V7.97934ZM131.229 12.8243H134.459C136.764 12.8243 138.1 12.2077 138.1 10.6661C138.1 9.25665 136.793 8.72809 134.503 8.72809H131.229V12.8243Z" fill="#1A3224"/>
<path id="Vector_13" d="M149.165 18.6383C147.036 18.6383 144.76 17.8015 143.895 16.9205L144.54 15.9956C145.142 16.9059 147.051 17.8749 149.18 17.8749C151.632 17.8749 152.806 17.0233 152.806 15.8635C152.806 14.8651 151.984 14.2925 149.283 13.9402C145.906 13.4997 144.129 12.2077 144.129 10.534C144.129 8.96305 145.906 7.78848 149.018 7.78848C150.795 7.78848 153.217 8.58132 153.908 9.25666L153.364 10.2844C152.85 9.55031 150.751 8.56661 149.018 8.56661C146.596 8.56661 145.847 9.55031 145.847 10.211C145.847 11.1359 146.904 11.9728 149.283 12.2224C153.115 12.6335 154.685 13.7346 154.685 15.5845C154.685 17.1995 152.336 18.6383 149.165 18.6383Z" fill="#1A3224"/>
<path id="Vector_14" d="M50.8066 32.1705C47.0922 32.1705 44.3027 29.8948 44.3027 26.8704C44.3027 23.7431 47.0922 21.394 50.8066 21.394C52.6566 21.394 54.8734 21.9813 55.9599 23.009L55.6075 23.978C54.2571 22.7595 52.4657 22.1869 50.8066 22.1869C48.2523 22.1869 46.3287 24.1102 46.3287 26.8704C46.3287 29.5278 48.2523 31.3777 50.8066 31.3777C52.7301 31.3777 54.5066 30.8198 55.5931 29.5718L55.9599 30.5555C54.7854 31.5832 52.5686 32.1705 50.8066 32.1705Z" fill="#1A3224"/>
<path id="Vector_15" d="M59.4785 31.9797V21.5409H61.3429V31.2309H68.0526V31.9797H59.4785Z" fill="#1A3224"/>
<path id="Vector_16" d="M76.0102 32.0237C72.9708 32.0237 70.6953 30.5262 70.6953 28.5441V21.5409H72.5453V28.3679C72.5453 30.1445 73.6169 31.1869 76.0102 31.1869C78.5208 31.1869 80.1208 30.0564 80.165 28.1918V21.5409H80.9727V28.2946C80.8698 30.4381 78.7847 32.0237 76.0102 32.0237Z" fill="#1A3224"/>
<path id="Vector_17" d="M84.4941 31.9652V21.5411H90.6163C92.9951 21.5411 94.3898 22.2752 94.3898 23.5084C94.3898 24.3893 93.7143 25.0941 92.5249 25.4464C94.3749 26.0043 95.4172 27.1055 95.4172 28.6177C95.4172 30.7172 93.2004 31.9652 89.4417 31.9652H84.4941ZM86.3441 31.3339H88.7081C91.8057 31.3339 93.597 30.4236 93.5235 28.6177C93.4648 27.0614 92.1581 26.019 89.9413 25.6814H86.3441V31.3339ZM86.3441 24.9032H89.8826C91.5413 24.9032 92.5105 24.4774 92.4956 23.5084C92.4812 22.5541 91.5119 22.143 89.8826 22.143H86.3441V24.9032Z" fill="#1A3224"/>
</g>
<defs>
<clipPath id="clip0_614_235">
<rect width="154.712" height="40" fill="white"/>
</clipPath>
</defs>
</svg>
